<?xml version="1.0" encoding="UTF-8"?>
<svg width="95px" height="43px" viewBox="0 0 95 43" version="1.1" xmlns="http://www.w3.org/2000/svg" xmlns:xlink="http://www.w3.org/1999/xlink">
    <title>DSERVE logo</title>
    <g id="Page-1" stroke="none" stroke-width="1" fill="none" fill-rule="evenodd">
        <g id="V1" transform="translate(-52.000000, -48.000000)" fill="#0A0B09">
            <g id="DSERVE-logo" transform="translate(52.000000, 48.000000)">
                <path d="M92.5260417,27.6781609 L92.5260417,32.3113306 L0,43 L0,38.2413376 L92.5260417,27.6781609 Z M11.4932074,10.7297695 C14.6046276,11.4591645 16.3741227,13.5166405 16.6824238,16.6054782 C17.1966586,21.7756439 16.3632147,23.4221494 13.1165831,28.1183753 C10.6003089,31.756883 7.18058759,34.1617638 3.11142014,35.5862069 L0,32.4788839 L0.0053940712,32.429868 C0.27313235,30.7017441 0.820866002,27.7698153 1.38857234,24.7767496 L1.56820867,23.8308715 L1.7142984,23.0626982 C2.32095811,19.8734231 2.89347881,16.8647852 3.11142014,15.4449578 C2.78657718,15.4804973 2.10488645,15.5712542 1.5961656,15.6430488 L0.881870708,11.25034 C4.25304534,10.6060967 8.24106198,9.96018381 11.4932074,10.7297695 Z M30.2769096,10.7960512 C30.6147411,11.4871664 30.8523988,12.2419558 31.1343248,12.9634773 L31.171875,13.0742513 L27.1564077,15.0047474 C27.0894652,14.9177022 27.0353594,14.8054973 26.9888116,14.6694445 C26.76615,14.019467 26.5479272,13.3629314 26.2292907,12.77007 C25.6896722,11.7728655 24.5781636,11.4124029 23.7530199,11.8834011 C22.6956171,12.4898559 22.3552663,13.4909952 22.8116267,14.7130863 C23.7101911,17.1329436 28.860441,20.6213108 30.0476497,23.4219015 C31.2091852,26.1565524 31.5576939,28.9025312 29.3812244,30.7289308 C29.1857957,30.8943167 28.9874877,31.0387164 28.7776627,31.1804928 C25.5629854,33.3214476 21.5043294,33.0803442 19.2162892,30.424034 L19.1643428,30.3659641 C18.271177,29.3046085 17.6142292,28.0170547 16.8815813,26.8145189 L16.8229167,26.7086338 L20.430371,24.1329298 C20.5274255,24.2398881 20.6230404,24.3746293 20.7168558,24.5372727 C21.3086607,25.5548672 22.0331508,26.5053295 22.8163055,27.3689851 C23.4190275,28.0372062 24.2164584,28.4576466 25.2605447,28.2221475 C26.6762935,27.9075923 26.6644167,25.9978439 25.152693,24.5818685 C23.3757188,22.9142966 21.6017439,21.2276463 19.9978843,19.3915883 C18.9607562,18.2006188 18.423897,16.6407207 18.2289481,14.9446505 C17.8879974,11.9795085 19.7864997,8.95701214 22.665625,7.92749368 C26.1184398,6.69979829 28.7552285,7.67911669 30.2769096,10.7960512 Z M47.5,5.44329822 L47.5,9.91948172 C47.3736692,9.97019501 47.2098451,9.99784611 47.03217,10.0163194 C45.2825242,10.1915215 41.2546254,10.6617078 41.2546254,10.6617078 L40.0008698,15.7556286 L46.0637931,14.8474959 L46.0637931,19.3190905 L38.8594745,20.383952 L38.4477651,22.0619619 C38.3842756,22.3339512 38.3182079,22.6176998 38.2516626,22.9046194 L38.151749,23.3363037 C37.7860112,24.9199942 37.4375963,26.4697153 37.4559847,26.5566187 C38.4243616,26.3676499 39.4114852,26.1878589 40.3986088,25.975828 C41.9002498,25.648486 43.4065476,25.3304395 44.9035318,24.9477954 C44.9971456,24.9247332 45.0813263,24.9062599 45.1608502,24.8970821 C45.366705,26.040308 45.7128609,28.0087132 45.9328055,29.2996078 C45.8579384,29.3272589 45.7737576,29.35491 45.6801439,29.3732656 C44.6014318,29.6090371 43.1833717,29.9192046 41.7450587,30.2338827 L40.935975,30.4109042 C38.0665958,31.0387298 35.3555261,31.6321839 35.3555261,31.6321839 L32.65625,26.5197898 L36.1741688,10.9705765 L34.2374149,11.256383 L33.8258249,7.05212155 C33.8258249,7.05212155 43.8136003,5.88124457 47.0041098,5.46177151 C47.1958747,5.43870931 47.3595794,5.42941384 47.5,5.44329822 Z M59.6082544,3.64471711 C63.0386024,4.63202356 65.507006,9.89590637 62.0953435,13.8870512 C61.3492408,14.7712918 60.4810833,15.557363 59.6175972,16.3294613 C59.1342893,16.769193 65.7135048,23.5117067 65.8072917,23.6473762 L62.0906722,26.8524498 C62.0578527,26.8056343 57.4682846,21.3079126 55.1876943,18.205666 C55.0592312,18.0314651 54.8684856,21.8742837 54.7554815,25.6760079 L54.739882,26.2183936 L54.7251093,26.7700714 C54.7039007,27.5936761 54.6870784,28.396507 54.6761186,29.1357826 L54.5588551,29.1732828 L49.9739583,29.6551724 C50.0067778,25.9119589 50.0725364,21.2003085 50.0537311,18.5566632 C50.0519252,18.2917548 50.0508415,18.0015971 50.0503882,17.6907795 L50.0508274,16.7009366 C50.0529739,15.6582932 50.0599668,14.4710166 50.0693258,13.2630234 L50.0758884,12.4559853 C50.1010369,9.49556447 50.1370296,6.57589769 50.1476377,5.50694882 C50.1476377,5.21685962 56.614261,2.7791072 59.6082544,3.64471711 Z M7.81900588,14.9457348 C7.3819478,17.7228815 6.96679795,19.7520935 6.55120028,21.7366815 L6.34326062,22.7285129 C5.92689266,24.7177627 5.50635087,26.7796068 5.05927918,29.617356 C5.51393945,29.3723957 11.6014485,24.9162405 11.8990813,20.4418385 C12.1046554,17.3942648 10.941334,15.15122 7.81900588,14.9457348 Z M77.7352272,0 L82.1354167,0.72162431 C81.6229993,2.21327529 80.7151816,4.87945835 80.2028813,6.37683178 C78.1215003,12.4481088 76.0349705,18.5272541 73.9537065,24.6128372 C73.6684191,25.4416382 73.3831318,26.2650744 73.1032271,27.0935177 L68.1853546,27.6781609 C68.0532424,23.2992974 66.4130154,7.55792083 66.3020833,4.07199735 L70.7868761,3.06377386 C70.7969395,3.36628008 70.8200738,3.74026172 70.8536981,4.16936061 L70.8989172,4.70968863 C71.0154062,6.02729968 71.2060421,7.72573061 71.4141676,9.4458865 L71.4929238,10.091262 C71.9426005,13.7462115 72.4392728,17.2965705 72.4392728,17.2965705 C74.018651,12.6863056 76.1558491,4.60168128 77.7352272,0 Z M95,0.00441889178 L95,4.53510189 C94.8751198,4.58638007 94.713295,4.61433918 94.5375421,4.63301823 C92.8079872,4.81017185 88.8264583,5.28095552 88.8264583,5.28095552 L87.2285116,11.6520612 L93.1232565,10.8301826 L93.1232565,15.3515856 L86.1002228,16.3319387 C86.1002228,16.3319387 84.8413883,21.4691557 84.864405,21.5763521 C85.8216622,21.3852784 92.0237682,19.8854809 92.102497,19.8762008 C92.1084695,20.1457742 92.1112976,20.4961457 92.1120001,20.8842133 L92.1120319,21.2832498 C92.1118481,21.4080414 92.1114977,21.5350112 92.1110095,21.6629293 L92.1091611,22.0482995 C92.1018168,23.3341537 92.0836115,24.5918898 92.0836115,24.5918898 L80.1492936,26.6896552 L79.6614583,23.1496761 L83.7395392,5.57458556 L84.083963,1.45864904 C84.083963,1.45864904 86.7018714,1.09621344 89.4774347,0.714623827 L90.0339205,0.638152231 C91.7053102,0.408581562 93.3744097,0.180354209 94.5098041,0.0276189964 C94.6993669,-0.000340104043 94.8611918,-0.00498012498 95,0.00441889178 Z M54.8731549,7.81368936 C54.8826175,10.0174835 54.8872888,12.0995811 54.8967514,14.1771404 C55.0328202,14.2145212 57.4964326,12.5581823 58.3833954,11.500772 C59.8287674,9.7788675 59.2093907,7.86516258 57.2571144,7.70142759 C56.5298169,7.63120427 55.7601177,7.76221615 54.8731549,7.81368936 Z" id="Combined-Shape"></path>
            </g>
        </g>
    </g>
</svg>